<svg width="127" height="47" viewBox="0 0 127 47" fill="none" xmlns="http://www.w3.org/2000/svg">
<path d="M20.4653 36.8651C20.3261 36.735 20.2465 36.5649 20.2465 36.3647C20.2465 36.1645 20.3161 35.9944 20.4653 35.8642C20.6046 35.7341 20.7836 35.6641 20.9924 35.6641C21.2013 35.6641 21.3803 35.7241 21.5196 35.8542C21.6588 35.9843 21.7284 36.1445 21.7284 36.3347C21.7284 36.5449 21.6588 36.715 21.5196 36.8551C21.3803 36.9953 21.2013 37.0653 20.9825 37.0653C20.7637 37.0653 20.5946 36.9953 20.4554 36.8651H20.4653Z" fill="black" style="fill:black;fill-opacity:1;"/>
<path d="M20.4057 37.8861H21.5693V42.8806H20.4057V37.8861Z" fill="black" style="fill:black;fill-opacity:1;"/>
<path fill-rule="evenodd" clip-rule="evenodd" d="M19.2521 39.0471C19.0333 38.6568 18.7349 38.3565 18.357 38.1463H18.3669C17.989 37.9361 17.5613 37.826 17.074 37.826C16.7557 37.826 16.4574 37.8861 16.1888 37.9962C15.9104 38.1163 15.6816 38.2764 15.4827 38.4966V35.9443H14.3191V42.8806H15.423V42.24C15.612 42.4702 15.8507 42.6504 16.1292 42.7705C16.4076 42.8906 16.7259 42.9506 17.064 42.9506C17.5414 42.9506 17.979 42.8406 18.357 42.6304C18.7349 42.4202 19.0333 42.1199 19.2521 41.7295C19.4709 41.3392 19.5803 40.8988 19.5803 40.3883C19.5803 39.8779 19.4709 39.4375 19.2521 39.0471ZM18.3967 40.3883C18.3967 40.8588 18.2575 41.2291 17.979 41.5194C17.7006 41.8096 17.3525 41.9497 16.9248 41.9497C16.6463 41.9497 16.3877 41.8897 16.1689 41.7596C15.9501 41.6295 15.7711 41.4493 15.6418 41.2091C15.5125 40.9789 15.4429 40.6986 15.4429 40.3883C15.4429 40.0781 15.5125 39.8078 15.6418 39.5676C15.7711 39.3274 15.9501 39.1472 16.1689 39.0171C16.3977 38.887 16.6463 38.8269 16.9248 38.8269C17.3525 38.8269 17.7006 38.967 17.979 39.2573C18.2575 39.5476 18.3967 39.9179 18.3967 40.3883Z" fill="black" style="fill:black;fill-opacity:1;"/>
<path d="M6.06418 42.8806V38.5367L3.91594 42.1299H3.37889L1.2406 38.5967V42.8806H0.0869141V36.3347H1.08147L3.66731 40.6786L6.20342 36.3347H7.19797V42.8806H6.06418Z" fill="black" style="fill:black;fill-opacity:1;"/>
<path fill-rule="evenodd" clip-rule="evenodd" d="M9.45566 42.6204C9.0479 42.4002 8.73958 42.0999 8.51084 41.7095C8.28209 41.3192 8.17269 40.8788 8.17269 40.3883C8.17269 39.8979 8.28209 39.4575 8.51084 39.0671C8.73958 38.6768 9.0479 38.3765 9.45566 38.1563C9.85348 37.9361 10.311 37.826 10.8083 37.826C11.3055 37.826 11.773 37.9361 12.1708 38.1563C12.5686 38.3765 12.8869 38.6768 13.1156 39.0671C13.3444 39.4575 13.4538 39.8979 13.4538 40.3883C13.4538 40.8788 13.3444 41.3192 13.1156 41.7095C12.8869 42.0999 12.5786 42.4002 12.1708 42.6204C11.763 42.8406 11.3155 42.9507 10.8083 42.9507C10.301 42.9507 9.85348 42.8406 9.45566 42.6204ZM11.8724 41.5194C12.1509 41.2291 12.2901 40.8588 12.2901 40.3883C12.2901 39.9179 12.1509 39.5476 11.8724 39.2573C11.594 38.9671 11.2359 38.8269 10.8083 38.8269C10.3806 38.8269 10.0325 38.9671 9.75403 39.2573C9.47555 39.5476 9.33632 39.9179 9.33632 40.3883C9.33632 40.8588 9.47555 41.2291 9.75403 41.5194C10.0325 41.8096 10.3806 41.9498 10.8083 41.9498C11.2359 41.9498 11.584 41.8096 11.8724 41.5194Z" fill="black" style="fill:black;fill-opacity:1;"/>
<path d="M23.9859 35.9443H22.8223V42.8806H23.9859V35.9443Z" fill="black" style="fill:black;fill-opacity:1;"/>
<path fill-rule="evenodd" clip-rule="evenodd" d="M29.8938 40.7587H25.9952C26.0648 41.129 26.2438 41.4193 26.5322 41.6295C26.8206 41.8396 27.1787 41.9497 27.6063 41.9497C28.1533 41.9497 28.6009 41.7696 28.9589 41.4092L29.5855 42.1299C29.3667 42.4001 29.0783 42.6003 28.7401 42.7405C28.402 42.8806 28.0141 42.9506 27.5864 42.9506C27.0394 42.9506 26.562 42.8405 26.1443 42.6203C25.7266 42.4001 25.4084 42.0999 25.1796 41.7095C24.9509 41.3192 24.8415 40.8788 24.8415 40.3883C24.8415 39.8979 24.9509 39.4675 25.1697 39.0771C25.3885 38.6868 25.6968 38.3865 26.0847 38.1663C26.4725 37.9461 26.9201 37.836 27.4074 37.836C27.8948 37.836 28.3224 37.9461 28.7003 38.1563C29.0783 38.3765 29.3766 38.6768 29.5954 39.0671C29.8043 39.4575 29.9137 39.9079 29.9137 40.4184C29.9137 40.4984 29.9137 40.6185 29.8938 40.7687V40.7587ZM26.4527 39.0972C26.1941 39.3174 26.0349 39.6176 25.9852 39.978H28.7998C28.7501 39.6176 28.6009 39.3274 28.3423 39.0972C28.0837 38.877 27.7754 38.7569 27.3975 38.7569C27.0195 38.7569 26.7112 38.867 26.4527 39.0872V39.0972Z" fill="black" style="fill:black;fill-opacity:1;"/>
<path fill-rule="evenodd" clip-rule="evenodd" d="M37.2237 42.2L38.0392 42.9907V43.0107L38.6757 42.25L37.8602 41.4693C38.1287 41.0589 38.3276 40.5585 38.447 39.978L37.5121 39.6677C37.4325 40.0981 37.3132 40.4584 37.1541 40.7687L35.7517 39.4175C36.2192 39.1572 36.5573 38.897 36.7662 38.6267C36.975 38.3565 37.0745 38.0662 37.0745 37.7259C37.0745 37.2855 36.9154 36.9352 36.5971 36.675C36.2788 36.4147 35.8611 36.2846 35.334 36.2846C34.7671 36.2846 34.3096 36.4348 33.9615 36.715C33.6134 37.0053 33.4444 37.3756 33.4444 37.836C33.4444 38.0762 33.504 38.3065 33.6134 38.5367C33.7228 38.7569 33.9118 39.0071 34.1704 39.2673C33.6333 39.5676 33.2554 39.8679 33.0167 40.1781C32.788 40.4884 32.6686 40.8387 32.6686 41.2491C32.6686 41.5794 32.7681 41.8897 32.9769 42.1499C33.1858 42.4102 33.4643 42.6204 33.8223 42.7705C34.1803 42.9106 34.5881 42.9907 35.0357 42.9907C35.891 42.9907 36.617 42.7204 37.2237 42.2ZM36.5272 41.5196L34.8168 39.8779C34.4489 40.0881 34.1803 40.2782 34.0312 40.4684C33.882 40.6586 33.8024 40.8688 33.8024 41.109C33.8024 41.3792 33.9218 41.6094 34.1604 41.7696C34.3991 41.9397 34.7174 42.0198 35.1152 42.0198C35.6522 42.0198 36.1295 41.8497 36.5272 41.5196ZM34.5085 37.786C34.5085 37.5758 34.5782 37.4156 34.7273 37.2855C34.8765 37.1554 35.0754 37.0954 35.334 37.0954C35.5727 37.0954 35.7617 37.1554 35.891 37.2655C36.0203 37.3756 36.0899 37.5358 36.0899 37.7259C36.0899 37.9061 36.0203 38.0762 35.8711 38.2264C35.7219 38.3865 35.4633 38.5567 35.0953 38.7669C34.8666 38.5367 34.7075 38.3465 34.6279 38.2164C34.5483 38.0762 34.5085 37.9361 34.5085 37.786Z" fill="black" style="fill:black;fill-opacity:1;"/>
<path d="M42.9523 37.3556V39.3474H46.0951V40.3783H42.9523V42.8806H41.7489V36.3347H46.5028V37.3556H42.9523Z" fill="black" style="fill:black;fill-opacity:1;"/>
<path d="M47.0297 36.3647C47.0297 36.5649 47.1093 36.735 47.2485 36.8651H47.2386C47.3778 36.9953 47.5469 37.0653 47.7657 37.0653C47.9845 37.0653 48.1635 36.9953 48.3028 36.8551C48.442 36.715 48.5116 36.5449 48.5116 36.3347C48.5116 36.1445 48.442 35.9843 48.3028 35.8542C48.1635 35.7241 47.9845 35.6641 47.7756 35.6641C47.5668 35.6641 47.3878 35.7341 47.2485 35.8642C47.0993 35.9944 47.0297 36.1645 47.0297 36.3647Z" fill="black" style="fill:black;fill-opacity:1;"/>
<path d="M48.3525 37.8861H47.1889V42.8806H48.3525V37.8861Z" fill="black" style="fill:black;fill-opacity:1;"/>
<path fill-rule="evenodd" clip-rule="evenodd" d="M53.6536 38.1463C54.0315 38.3565 54.3299 38.6568 54.5487 39.0471C54.7675 39.4375 54.8769 39.8779 54.8769 40.3883C54.8769 40.8988 54.7675 41.3392 54.5487 41.7295C54.3299 42.1199 54.0315 42.4202 53.6536 42.6304C53.2757 42.8406 52.8381 42.9506 52.3607 42.9506C52.0225 42.9506 51.7043 42.8906 51.4258 42.7705C51.1473 42.6504 50.9086 42.4702 50.7197 42.24V42.8806H49.6157V35.9443H50.7793V38.4966C50.9782 38.2764 51.207 38.1163 51.4855 37.9962C51.754 37.8861 52.0524 37.826 52.3706 37.826C52.8579 37.826 53.2856 37.9361 53.6635 38.1463H53.6536ZM53.2856 41.5194C53.5641 41.2291 53.7033 40.8588 53.7033 40.3883C53.7033 39.9179 53.5641 39.5476 53.2856 39.2573C53.0071 38.967 52.659 38.8269 52.2314 38.8269C51.9529 38.8269 51.7043 38.887 51.4755 39.0171C51.2567 39.1472 51.0777 39.3274 50.9484 39.5676C50.8191 39.8078 50.7495 40.0781 50.7495 40.3883C50.7495 40.6986 50.8191 40.9789 50.9484 41.2091C51.0777 41.4493 51.2567 41.6295 51.4755 41.7596C51.6943 41.8897 51.9529 41.9497 52.2314 41.9497C52.659 41.9497 53.0071 41.8096 53.2856 41.5194Z" fill="black" style="fill:black;fill-opacity:1;"/>
<path d="M58.5867 38.947V37.836C57.7467 37.8381 57.1632 38.0983 56.8263 38.6167V37.8861H55.7224V42.8806H56.886V40.4584C56.886 39.9679 57.0054 39.5776 57.2639 39.3174C57.5126 39.0471 57.8706 38.917 58.3182 38.917C58.3977 38.917 58.4872 38.927 58.5867 38.947Z" fill="black" style="fill:black;fill-opacity:1;"/>
<path fill-rule="evenodd" clip-rule="evenodd" d="M63.9075 40.7587H60.0088C60.0784 41.129 60.2575 41.4193 60.5459 41.6295C60.8343 41.8396 61.1923 41.9497 61.62 41.9497C62.167 41.9497 62.6145 41.7696 62.9726 41.4092L63.5992 42.1299C63.3804 42.4001 63.0919 42.6003 62.7538 42.7405C62.4156 42.8806 62.0278 42.9506 61.6001 42.9506C61.0531 42.9506 60.5757 42.8405 60.158 42.6203C59.7403 42.4001 59.422 42.0999 59.1933 41.7095C58.9645 41.3192 58.8551 40.8788 58.8551 40.3883C58.8551 39.8979 58.9645 39.4675 59.1833 39.0771C59.4021 38.6868 59.7104 38.3865 60.0983 38.1663C60.4862 37.9461 60.9337 37.836 61.4211 37.836C61.9084 37.836 62.3361 37.9461 62.714 38.1563C63.0919 38.3765 63.3903 38.6768 63.6091 39.0671C63.818 39.4575 63.9274 39.9079 63.9274 40.4184C63.9274 40.4984 63.9274 40.6185 63.9075 40.7687V40.7587ZM60.4663 39.0972C60.2077 39.3174 60.0486 39.6176 59.9989 39.978H62.8135C62.7637 39.6176 62.6145 39.3274 62.356 39.0972C62.0974 38.877 61.7891 38.7569 61.4111 38.7569C61.0332 38.7569 60.7249 38.867 60.4663 39.0872V39.0972Z" fill="black" style="fill:black;fill-opacity:1;"/>
<path d="M65.9064 42.1699C65.9064 41.9397 65.8268 41.7496 65.6876 41.6094L65.6776 41.5994C65.5384 41.4593 65.3594 41.3892 65.1405 41.3892C64.9218 41.3892 64.7427 41.4593 64.6035 41.5994C64.4643 41.7396 64.3946 41.9297 64.3946 42.1599C64.3946 42.3301 64.4344 42.4602 64.514 42.5903C64.5935 42.7204 64.693 42.8005 64.8322 42.8606L64.4643 44.2919H65.2201L65.7293 42.8829C65.793 42.7072 65.8409 42.5751 65.8666 42.4802C65.8964 42.3701 65.9064 42.27 65.9064 42.1699Z" fill="black" style="fill:black;fill-opacity:1;"/>
<path fill-rule="evenodd" clip-rule="evenodd" d="M72.6296 38.3565C73.0174 38.7068 73.2064 39.2373 73.2064 39.9479V42.8706H72.1124V42.26C71.9732 42.4802 71.7643 42.6404 71.5057 42.7605C71.2471 42.8806 70.9289 42.9306 70.5509 42.9306C70.173 42.9306 69.8548 42.8706 69.5763 42.7405C69.2978 42.6103 69.079 42.4402 68.9298 42.21C68.7806 41.9798 68.7011 41.7295 68.7011 41.4393C68.7011 40.9889 68.8702 40.6285 69.1984 40.3583C69.5266 40.0881 70.0537 39.9479 70.7598 39.9479H72.0428V39.8779C72.0428 39.5276 71.9433 39.2573 71.7345 39.0771C71.5256 38.887 71.2173 38.7969 70.8095 38.7969C70.5311 38.7969 70.2526 38.8369 69.9841 38.927C69.7155 39.0171 69.4868 39.1372 69.2978 39.2873L68.8403 38.4366C69.0989 38.2364 69.4172 38.0863 69.7752 37.9762C70.1332 37.8661 70.5311 37.816 70.9388 37.816C71.6648 37.816 72.2317 37.9962 72.6196 38.3465L72.6296 38.3565ZM71.5753 41.8997C71.8041 41.7696 71.9632 41.5694 72.0527 41.3192V40.7387H70.8593C70.1929 40.7387 69.8548 40.9589 69.8548 41.3992C69.8548 41.6094 69.9343 41.7796 70.1034 41.9097C70.2725 42.0398 70.5012 42.0999 70.7996 42.0999C71.098 42.0999 71.3466 42.0298 71.5753 41.8997Z" fill="black" style="fill:black;fill-opacity:1;"/>
<path d="M75.5933 35.9443H74.4296V42.8806H75.5933V35.9443Z" fill="black" style="fill:black;fill-opacity:1;"/>
<path d="M76.8466 35.9443H78.0102V42.8806H76.8466V35.9443Z" fill="black" style="fill:black;fill-opacity:1;"/>
<path d="M81.5708 39.7978H79.0147V40.7687H81.5708V39.7978Z" fill="black" style="fill:black;fill-opacity:1;"/>
<path d="M82.6249 36.8651C82.4857 36.735 82.4061 36.5649 82.4061 36.3647C82.4061 36.1645 82.4758 35.9944 82.6249 35.8642C82.7642 35.7341 82.9432 35.6641 83.152 35.6641C83.3609 35.6641 83.5399 35.7241 83.6792 35.8542C83.8184 35.9843 83.888 36.1445 83.888 36.3347C83.888 36.5449 83.8184 36.715 83.6792 36.8551C83.5399 36.9953 83.3609 37.0653 83.1421 37.0653C82.9233 37.0653 82.7542 36.9953 82.615 36.8651H82.6249Z" fill="black" style="fill:black;fill-opacity:1;"/>
<path d="M82.5752 37.8861H83.7388V42.8806H82.5752V37.8861Z" fill="black" style="fill:black;fill-opacity:1;"/>
<path d="M89.8751 40.018C89.8751 39.2974 89.6861 38.7569 89.3082 38.3865L89.2983 38.3765C88.9203 38.0062 88.4231 37.826 87.7965 37.826C87.4285 37.826 87.1003 37.8861 86.8119 38.0062C86.5235 38.1163 86.2748 38.2964 86.0859 38.5267V37.8861H84.9819V42.8806H86.1455V40.3583C86.1455 39.8679 86.2649 39.4975 86.5135 39.2373C86.7622 38.9771 87.1003 38.8469 87.528 38.8469C87.9059 38.8469 88.1943 38.947 88.4032 39.1772C88.612 39.4075 88.7115 39.7277 88.7115 40.1681V42.8806H89.8751V40.018Z" fill="black" style="fill:black;fill-opacity:1;"/>
<path d="M90.8398 39.7978H93.3958V40.7687H90.8398V39.7978Z" fill="black" style="fill:black;fill-opacity:1;"/>
<path d="M99.3833 42.8806V41.8597H95.7134V40.058H98.8561V39.0571H95.7134V37.3556H99.254V36.3347H94.5V42.8806H99.3833Z" fill="black" style="fill:black;fill-opacity:1;"/>
<path d="M104.674 38.3865C105.052 38.7569 105.241 39.2974 105.241 40.018V42.8806H104.077V40.1681C104.077 39.7277 103.978 39.4075 103.769 39.1772C103.56 38.947 103.272 38.8469 102.894 38.8469C102.466 38.8469 102.128 38.9771 101.879 39.2373C101.631 39.4975 101.511 39.8679 101.511 40.3583V42.8806H100.348V37.8861H101.452V38.5267C101.641 38.2964 101.889 38.1163 102.178 38.0062C102.466 37.8861 102.794 37.826 103.162 37.826C103.789 37.826 104.286 38.0062 104.664 38.3765L104.674 38.3865Z" fill="black" style="fill:black;fill-opacity:1;"/>
<path fill-rule="evenodd" clip-rule="evenodd" d="M111.417 42.1199V37.8861L111.407 37.8961H110.303V38.5567C110.105 38.3165 109.866 38.1363 109.568 38.0162C109.269 37.8961 108.941 37.836 108.583 37.836C108.115 37.836 107.688 37.9361 107.31 38.1363C106.922 38.3365 106.624 38.6267 106.405 38.9871C106.186 39.3574 106.077 39.7778 106.077 40.2482C106.077 40.7186 106.186 41.139 106.405 41.5093C106.624 41.8697 106.932 42.1599 107.31 42.3601C107.688 42.5603 108.115 42.6604 108.583 42.6604C108.921 42.6604 109.229 42.6003 109.518 42.4902C109.806 42.3701 110.045 42.21 110.244 41.9898V42.25C110.244 42.7605 110.124 43.1408 109.866 43.391C109.617 43.6413 109.219 43.7614 108.672 43.7614C108.334 43.7614 107.996 43.7113 107.668 43.6012C107.33 43.5011 107.061 43.351 106.842 43.1708L106.325 44.0516C106.614 44.2818 106.962 44.462 107.389 44.5821C107.817 44.7022 108.265 44.7623 108.742 44.7623C110.522 44.7623 111.417 43.8815 111.417 42.1199ZM110.284 40.2382C110.284 40.6586 110.134 41.0089 109.856 41.2691C109.577 41.5394 109.219 41.6695 108.772 41.6695C108.324 41.6695 107.956 41.5294 107.678 41.2691C107.389 41.0089 107.25 40.6586 107.25 40.2382C107.25 39.8178 107.399 39.4775 107.678 39.2173C107.966 38.957 108.334 38.8269 108.772 38.8269C109.209 38.8269 109.577 38.957 109.856 39.2173C110.144 39.4775 110.284 39.8178 110.284 40.2382Z" fill="black" style="fill:black;fill-opacity:1;"/>
<path d="M112.67 35.9443H113.834V42.8806H112.67V35.9443Z" fill="black" style="fill:black;fill-opacity:1;"/>
<path d="M114.928 36.3647C114.928 36.5649 115.008 36.735 115.147 36.8651H115.137C115.276 36.9953 115.445 37.0653 115.664 37.0653C115.883 37.0653 116.062 36.9953 116.201 36.8551C116.34 36.715 116.41 36.5449 116.41 36.3347C116.41 36.1445 116.34 35.9843 116.201 35.8542C116.062 35.7241 115.883 35.6641 115.674 35.6641C115.465 35.6641 115.286 35.7341 115.147 35.8642C114.998 35.9944 114.928 36.1645 114.928 36.3647Z" fill="black" style="fill:black;fill-opacity:1;"/>
<path d="M116.251 37.8861H115.087V42.8806H116.251V37.8861Z" fill="black" style="fill:black;fill-opacity:1;"/>
<path d="M117.862 42.7905C117.474 42.6804 117.176 42.5503 116.947 42.3901L117.394 41.4993C117.613 41.6495 117.882 41.7696 118.2 41.8597C118.518 41.9497 118.817 41.9998 119.125 41.9998C119.821 41.9998 120.169 41.8196 120.169 41.4493C120.169 41.2791 120.08 41.149 119.901 41.089C119.722 41.0189 119.443 40.9588 119.055 40.8888C118.648 40.8287 118.309 40.7587 118.061 40.6686C117.802 40.5885 117.583 40.4484 117.394 40.2382C117.205 40.038 117.116 39.7578 117.116 39.3874C117.116 38.917 117.315 38.5367 117.703 38.2464C118.091 37.9561 118.628 37.816 119.294 37.816C119.632 37.816 119.98 37.856 120.318 37.9361C120.657 38.0162 120.935 38.1163 121.154 38.2464L120.706 39.1372C120.289 38.887 119.811 38.7669 119.284 38.7669C118.946 38.7669 118.687 38.8169 118.508 38.917C118.329 39.0171 118.24 39.1572 118.24 39.3274C118.24 39.5175 118.329 39.6477 118.518 39.7277C118.707 39.8078 118.996 39.8779 119.393 39.9479C119.791 40.008 120.12 40.0781 120.368 40.1581C120.627 40.2382 120.836 40.3783 121.025 40.5685C121.204 40.7587 121.303 41.0389 121.303 41.3892C121.303 41.8597 121.104 42.23 120.696 42.5103C120.299 42.7905 119.742 42.9306 119.055 42.9306C118.648 42.9306 118.26 42.8806 117.872 42.7705L117.862 42.7905Z" fill="black" style="fill:black;fill-opacity:1;"/>
<path d="M126.912 40.018C126.912 39.2973 126.723 38.7569 126.345 38.3865H126.335C125.957 38.0162 125.46 37.836 124.834 37.836C124.486 37.836 124.167 37.8861 123.889 37.9962C123.61 38.1063 123.372 38.2564 123.183 38.4666V35.9443H122.019V42.8806H123.183V40.3583C123.183 39.8679 123.302 39.4975 123.551 39.2373C123.799 38.9771 124.137 38.8469 124.565 38.8469C124.943 38.8469 125.231 38.947 125.44 39.1772C125.649 39.4074 125.749 39.7277 125.749 40.1681V42.8806H126.912V40.018Z" fill="black" style="fill:black;fill-opacity:1;"/>
<path fill-rule="evenodd" clip-rule="evenodd" d="M54.2005 10.4311C55.4437 11.2018 56.4084 12.2828 57.0946 13.6941C57.7809 15.0953 58.129 16.7268 58.129 18.5685C58.129 20.4101 57.7908 21.9916 57.1344 23.3628C56.4681 24.734 55.5232 25.795 54.2999 26.5457C53.0766 27.2964 51.6544 27.6667 50.0433 27.6667C48.999 27.6667 48.0442 27.4665 47.1889 27.0762C46.3336 26.6858 45.6075 26.1053 44.9909 25.3646V27.4365H38.3771V2.98438H44.9909V11.5821C45.5777 10.8315 46.2938 10.261 47.1193 9.8706C47.9447 9.48025 48.8697 9.28007 49.8742 9.28007C51.5152 9.28007 52.9573 9.67042 54.2005 10.4311ZM50.5604 21.2909C51.1472 20.5503 51.4456 19.5894 51.4456 18.4083C51.4456 17.2273 51.1472 16.2564 50.5604 15.5257C49.9736 14.785 49.1879 14.4247 48.2033 14.4247C47.2187 14.4247 46.4629 14.7951 45.8761 15.5257C45.2893 16.2564 44.9909 17.2172 44.9909 18.4083C44.9909 19.5994 45.2893 20.5603 45.8761 21.2909C46.4629 22.0216 47.2386 22.3919 48.2033 22.3919C49.168 22.3919 49.9736 22.0216 50.5604 21.2909Z" fill="#EB5078" style="fill:#EB5078;fill:color(display-p3 0.9216 0.3137 0.4706);fill-opacity:1;"/>
<path d="M6.8996 4.3356H0.0869141V27.4365H15.3632V21.7013H6.8996V4.3356Z" fill="#EB5078" style="fill:#EB5078;fill:color(display-p3 0.9216 0.3137 0.4706);fill-opacity:1;"/>
<path fill-rule="evenodd" clip-rule="evenodd" d="M35.2641 13.624C34.4486 12.2427 33.2949 11.1718 31.813 10.4111C30.3212 9.6504 28.5907 9.27006 26.6016 9.27006C24.6125 9.27006 22.872 9.6504 21.3802 10.4111C19.8883 11.1718 18.7247 12.2427 17.9092 13.624C17.0837 15.0052 16.6759 16.6467 16.6759 18.4684C16.6759 20.29 17.0936 21.9015 17.9092 23.2927C18.7247 24.694 19.8883 25.765 21.3802 26.5257C22.872 27.2863 24.6125 27.6667 26.6016 27.6667C28.5907 27.6667 30.3311 27.2863 31.813 26.5257C33.2949 25.765 34.4486 24.684 35.2641 23.2927C36.0896 21.9015 36.4974 20.31 36.4974 18.4684C36.4974 16.6267 36.0797 15.0052 35.2641 13.624ZM23.3593 18.5384C23.3593 17.3474 23.6577 16.3965 24.2445 15.6558C24.8313 14.9252 25.6368 14.5548 26.6016 14.5548C27.5663 14.5548 28.342 14.9152 28.9288 15.6558C29.5156 16.3965 29.814 17.3273 29.814 18.5384C29.814 19.7495 29.5156 20.7204 28.9288 21.4411C28.342 22.1717 27.5862 22.5321 26.6016 22.5321C25.617 22.5321 24.8313 22.1617 24.2445 21.4411C23.6577 20.7104 23.3593 19.7295 23.3593 18.5384Z" fill="#EB5078" style="fill:#EB5078;fill:color(display-p3 0.9216 0.3137 0.4706);fill-opacity:1;"/>
<path d="M121.84 9.24003C120.646 9.24003 119.562 9.51027 118.618 10.0508C117.663 10.5913 116.877 11.3519 116.241 12.3428V9.51027H109.627V27.4265H116.241V18.8587C116.241 17.7177 116.638 16.8169 117.434 16.1563C118.23 15.4957 119.324 15.1654 120.696 15.1654C121.193 15.1654 121.581 15.1954 121.84 15.2354V9.24003Z" fill="#EB5078" style="fill:#EB5078;fill:color(display-p3 0.9216 0.3137 0.4706);fill-opacity:1;"/>
<path d="M126.047 22.3619C126.624 22.9324 126.912 23.6731 126.912 24.5739C126.912 25.4747 126.624 26.2454 126.047 26.8359C125.47 27.4165 124.724 27.7067 123.799 27.7067C122.874 27.7067 122.168 27.4165 121.591 26.8359C121.015 26.2554 120.726 25.5047 120.726 24.5739C120.726 23.6431 121.015 22.9424 121.591 22.3619C122.168 21.7914 122.904 21.5011 123.799 21.5011C124.694 21.5011 125.46 21.7914 126.047 22.3619Z" fill="#EB5078" style="fill:#EB5078;fill:color(display-p3 0.9216 0.3137 0.4706);fill-opacity:1;"/>
<path fill-rule="evenodd" clip-rule="evenodd" d="M99.214 22.7623C100.368 22.7623 101.472 22.3519 102.536 21.5512L106.037 25.0043C105.211 25.785 104.256 26.4056 103.162 26.8459C101.82 27.3964 100.318 27.6667 98.657 27.6667C96.6878 27.6667 94.9871 27.2863 93.545 26.5257C92.1029 25.775 90.999 24.704 90.2232 23.3328C89.4474 21.9615 89.0596 20.3901 89.0596 18.5384C89.0596 16.6868 89.4574 15.0653 90.2431 13.674C91.0189 12.2828 92.1228 11.2018 93.545 10.4311C94.9672 9.66041 96.5983 9.28007 98.4581 9.28007C101.382 9.28007 103.66 10.1509 105.301 11.9024C106.942 13.644 107.757 16.0362 107.757 19.0689C107.757 19.5293 107.747 19.8696 107.727 20.0898H95.743C96.0016 20.9506 96.4392 21.6112 97.0359 22.0716C97.6326 22.532 98.3587 22.7623 99.214 22.7623ZM98.5277 13.7941C97.7619 13.7941 97.1254 14.0644 96.6281 14.6149C96.1209 15.1654 95.7927 15.9061 95.6137 16.8269H101.213C101.243 15.9561 100.994 15.2254 100.497 14.6549C99.9897 14.0844 99.3333 13.7941 98.5277 13.7941Z" fill="#EB5078" style="fill:#EB5078;fill:color(display-p3 0.9216 0.3137 0.4706);fill-opacity:1;"/>
<path d="M71.7443 17.1872C70.879 16.8169 69.795 16.4365 68.4822 16.0662C67.4976 15.806 66.7815 15.5657 66.3339 15.3556C65.8864 15.1454 65.6576 14.8751 65.6576 14.5448C65.6576 14.2646 65.777 14.0444 66.0157 13.9042C66.2544 13.7641 66.5826 13.6941 67.0003 13.6941C68.2435 13.6941 69.8447 14.1545 71.7841 15.0553L73.8627 10.7714C71.7244 9.73047 69.5065 9.21 67.1992 9.21C64.8918 9.21 63.0917 9.75049 61.6993 10.8215C60.3069 11.9024 59.6008 13.3638 59.6008 15.2054C59.6008 16.3865 59.9191 17.3574 60.5456 18.108C61.1821 18.8587 61.9181 19.4192 62.7734 19.7896C63.6287 20.1599 64.683 20.5302 65.9461 20.8806C66.9307 21.1408 67.6368 21.381 68.0545 21.5912C68.4822 21.8014 68.691 22.0716 68.691 22.4019C68.691 22.6622 68.5617 22.8724 68.3031 23.0125C68.0445 23.1526 67.6766 23.2227 67.2191 23.2227C66.2345 23.2227 65.1902 23.0325 64.0962 22.6622C62.9922 22.2918 61.8883 21.7413 60.7744 21.0107L58.7455 25.1945C59.8992 26.0352 61.1921 26.6658 62.6242 27.0862C64.0564 27.5166 65.5582 27.7267 67.1296 27.7267C69.4867 27.7267 71.3763 27.1963 72.8085 26.1253C74.2406 25.0643 74.9567 23.613 74.9567 21.7914C74.9567 20.6003 74.6384 19.6294 73.992 18.8787C73.3455 18.1181 72.5897 17.5575 71.7343 17.1772L71.7443 17.1872Z" fill="#EB5078" style="fill:#EB5078;fill:color(display-p3 0.9216 0.3137 0.4706);fill-opacity:1;"/>
<path d="M86.4537 27.4165C87.3588 27.2063 88.1246 26.926 88.7611 26.5757L87.5776 21.9916C86.6427 22.3419 85.9664 22.522 85.5487 22.522C85.0713 22.522 84.6934 22.3719 84.4348 22.0917C84.1762 21.8114 84.0469 21.381 84.0469 20.8105V14.685H87.5875V10.4311H84.0469V5.45661H77.463V10.4211H75.5833V14.6749H77.463V21.8314C77.463 23.6531 78.0299 25.0944 79.1637 26.1453C80.2975 27.1963 81.8191 27.7267 83.7187 27.7267C84.6337 27.7267 85.5487 27.6267 86.4537 27.4165Z" fill="#EB5078" style="fill:#EB5078;fill:color(display-p3 0.9216 0.3137 0.4706);fill-opacity:1;"/>
</svg>
