<svg width="40" height="50" viewBox="0 0 40 50" fill="none" xmlns="http://www.w3.org/2000/svg">
<path d="M12.1339 7.6C12.4006 6 12.7739 2.64 12.1339 2M17.7339 10C18.8006 8.93333 21.0939 6.64 21.7339 6M19.3339 16.4C20.1339 16.4 22.2139 16.4 24.1339 16.4M6.53392 13.2C2.53392 15.6 -3.38608 26.32 11.3339 40.4C23.3339 51.8782 35.0673 48.9333 37.7339 44.4C35.8673 41.4666 31.6539 35.6 29.7339 35.6C27.8139 35.6 25.7339 38.8 24.9339 40.4C23.6006 40.6666 19.8139 40.08 15.3339 35.6C9.73392 30 9.73392 26 10.5339 25.2C11.3339 24.4 16.0929 23.4768 15.3339 21.2C14.5339 18.8 9.05295 11.6885 6.53392 13.2Z" stroke="#EB5078" style="stroke:#EB5078;stroke:color(display-p3 0.9216 0.3137 0.4706);stroke-opacity:1;" stroke-width="3" stroke-linecap="round" stroke-linejoin="round"/>
</svg>
