<svg width="34" height="32" viewBox="0 0 34 32" fill="none" xmlns="http://www.w3.org/2000/svg">
<g id="Icon">
<path id="Vector" d="M1.7998 14.3957C3.21851 13.1937 5.07353 11.6127 6.98183 9.97162M32.1998 13.5109C32.1998 12.6261 16.7795 1.56592 16.3389 2.45073C16.0929 2.94489 11.3949 6.17656 6.98183 9.97162M6.98183 9.97162C6.50628 16.7552 5.8405 27.6678 6.98183 27.6678C8.4085 27.6678 22.0665 29.4375 23.3882 28.5526M26.4723 11.7412C26.4723 16.7552 26.4723 25.2788 26.4723 26.3406M11.6675 20.2318C12.5279 18.2786 14.493 16.9137 16.7795 16.9137C19.066 16.9137 21.0311 18.2786 21.8915 20.2318M9.28966 17.6344C10.8798 15.2037 13.6403 13.5957 16.7795 13.5957C19.9187 13.5957 22.6792 15.2037 24.2694 17.6344M14.5491 22.4438C14.5491 21.2221 15.5477 20.2318 16.7795 20.2318C18.0113 20.2318 19.0099 21.2221 19.0099 22.4438" stroke="#EB5078" style="stroke:#EB5078;stroke:color(display-p3 0.9216 0.3137 0.4706);stroke-opacity:1;" stroke-width="2" stroke-linecap="round" stroke-linejoin="round"/>
</g>
</svg>
