<svg width="26" height="23" viewBox="0 0 26 23" fill="none" xmlns="http://www.w3.org/2000/svg">
<path d="M1.6001 10.7963C2.66413 9.89477 4.05539 8.70904 5.48662 7.47823M24.4001 10.1327C24.4001 9.46905 12.8349 1.17395 12.5044 1.83756C12.3199 2.20818 8.79639 4.63193 5.48662 7.47823M5.48662 7.47823C5.12995 12.5659 4.63062 20.7504 5.48662 20.7504C6.55662 20.7504 16.8001 22.0776 17.7914 21.414M20.1044 8.80544C20.1044 12.5659 20.1044 18.9586 20.1044 19.755M9.00086 15.1733C9.64619 13.7085 11.12 12.6848 12.8349 12.6848C14.5498 12.6848 16.0236 13.7085 16.6689 15.1733M7.21749 13.2253C8.41009 11.4023 10.4805 10.1963 12.8349 10.1963C15.1893 10.1963 17.2597 11.4023 18.4523 13.2253M11.1621 16.8323C11.1621 15.9161 11.911 15.1733 12.8349 15.1733C13.7588 15.1733 14.5077 15.9161 14.5077 16.8323" stroke="#EB5078" stroke-width="2" stroke-linecap="round" stroke-linejoin="round"/>
</svg>
