<svg width="24" height="24" viewBox="0 0 24 24" fill="none" xmlns="http://www.w3.org/2000/svg">
<path d="M18.6675 7.78192C19.1289 6.48559 18.8558 5.18361 18.2737 4.17183C17.696 3.16782 16.7571 2.33613 15.6544 1.91004C14.5595 1.48695 13.0125 1.45076 11.7133 1.53929C10.3737 1.63058 8.94213 1.88151 7.97619 2.25476L7.96737 2.2582C7.54982 2.42259 7.00806 2.6938 6.55913 3.11504C6.09956 3.54626 5.59372 4.28731 5.71843 5.28436C5.82125 6.10638 6.57099 6.68941 7.39301 6.58659C8.10585 6.49742 8.63896 5.92178 8.70095 5.23439C8.72259 5.21991 8.74782 5.20411 8.7769 5.18729C8.86085 5.13874 8.9587 5.09226 9.06198 5.05139C9.63538 4.83088 10.7306 4.61321 11.9173 4.53235C13.1474 4.44852 14.1299 4.53714 14.5731 4.70839C15.0085 4.87665 15.4235 5.23363 15.6733 5.66793C15.9186 6.09427 15.9467 6.47991 15.8412 6.77616L15.8406 6.77766C15.7445 7.04843 15.5339 7.32213 15.1158 7.6353C14.726 7.92734 14.2734 8.17185 13.7221 8.46975C13.6607 8.50292 13.5981 8.53675 13.5342 8.57138C12.2576 9.19225 11.1272 10.0808 10.2169 11.1768C10.2114 11.1834 10.206 11.1901 10.2006 11.1968C9.66312 11.867 9.29924 12.6604 9.13954 13.5052C8.97986 14.3499 9.02891 15.2217 9.28265 16.043C9.52718 16.8345 10.3671 17.2779 11.1586 17.0334C11.8028 16.8343 12.2164 16.2409 12.2162 15.6002M18.6675 7.78192C18.3016 8.81235 17.597 9.52505 16.9144 10.0364C16.3325 10.4723 15.6685 10.8295 15.1408 11.1134C15.0693 11.1519 15.0003 11.189 14.9344 11.2248C14.9132 11.2363 14.8917 11.2473 14.8699 11.2578C13.9741 11.6893 13.1772 12.3111 12.5336 13.0829C12.3095 13.3654 12.1555 13.7016 12.0873 14.0624M18.6675 7.78192L18.6673 7.78268M18.6675 7.78192L18.6678 7.78118M8.60154 5.31319C8.60154 5.31319 8.60198 5.31264 8.60298 5.31157M9.29979 21.0002C9.29979 21.8286 9.97136 22.5002 10.7998 22.5002C11.6282 22.5002 12.2998 21.8286 12.2998 21.0002V20.4002C12.2998 19.5718 11.6282 18.9002 10.7998 18.9002C10.4202 18.9002 10.0736 19.0412 9.80941 19.2736" stroke="#EB5078" style="stroke:#EB5078;stroke:color(display-p3 0.9216 0.3137 0.4706);stroke-opacity:1;" stroke-width="2" stroke-linecap="round" stroke-linejoin="round"/>
</svg>
