<svg width="30" height="30" viewBox="0 0 30 30" fill="none" xmlns="http://www.w3.org/2000/svg">
<path d="M24.097 24.9538C20.225 28.0978 14.721 29.3938 10.065 27.6018C1.76103 24.4498 -1.19897 13.7298 3.94503 6.80176C5.06069 5.29828 6.47954 4.04575 8.10979 3.12521C9.74005 2.20466 11.5454 1.63659 13.409 1.45776C20.969 0.721763 28.673 7.16976 28.873 14.8978C28.8829 15.6317 28.8293 16.3651 28.713 17.0898C28.3021 19.4924 27.1886 21.7194 25.513 23.4898M16.1997 3.00039L17.7999 4.60039L16.5999 5.80039H14.9999C14.6799 5.80039 13.5332 6.06706 12.9999 6.20039C13.2666 6.73372 13.7999 7.88039 13.7999 8.20039C13.7999 8.52039 15.1332 9.40039 15.7999 9.80039C15.7999 9.93372 15.7199 10.2004 15.3999 10.2004H12.5999L12.9999 12.2004C13.5332 12.3337 14.6799 12.6004 14.9999 12.6004H17.7999V11.4004L18.9999 10.6004L20.9999 9.80039L22.1999 10.6004C22.4665 10.7337 22.9998 11.0804 22.9998 11.4004C22.9998 11.7204 23.7999 12.6004 24.1999 13.0004C25.0052 13.1337 26.6158 13.2404 26.6158 12.6004C26.6158 11.8004 26.312 10.6004 25.7999 10.6004M7.39987 7.80039C7.26653 8.20039 6.9199 9.16039 6.5999 9.80039C6.1999 10.6004 4.9999 11.4004 5.3999 11.8004C5.7199 12.1204 6.86657 11.9337 7.3999 11.8004C7.66656 11.6671 8.99987 11.7204 8.99987 11.4004C8.99987 11.0004 9.79987 6.60039 9.39987 6.20039M11.3167 14.3C11.0656 14.1276 10.2988 14.0229 9.24014 14.983C7.91677 16.183 8.31485 16.2221 7.47564 16.5831C6.63642 16.9441 7.03451 16.9831 6.55035 17.8222C6.46671 18.6755 6.44145 20.5734 7.00954 21.3383C7.71966 22.2944 9.31203 22.4505 9.66709 22.9286C10.0221 23.4067 11.5284 24.4408 11.8835 24.9189C12.2386 25.397 12.9487 26.3531 13.3468 26.3921C13.6652 26.4233 13.4221 26.9905 13.2607 27.2702L13.2177 27.7092L17.9948 28.1775L22.1909 26.3725L22.2158 22.0173L22.2589 21.5782C22.2876 21.2855 22.4418 20.5323 22.8291 19.8611C23.3133 19.022 22.162 18.4659 22.119 18.9049C22.0759 19.344 21.3228 18.8269 20.4836 19.1879C19.6444 19.5489 19.3323 18.6318 19.0203 17.7147C18.7083 16.7976 18.6653 17.2366 18.3102 16.7585C17.9551 16.2805 16.8039 15.7244 15.6527 15.1683C14.5014 14.6122 14.8134 15.5293 13.6192 15.4122C12.6637 15.3185 11.6861 14.6317 11.3167 14.3Z" stroke="#EB5078" style="stroke:#EB5078;stroke:color(display-p3 0.9216 0.3137 0.4706);stroke-opacity:1;" stroke-width="2" stroke-linecap="round" stroke-linejoin="round"/>
</svg>
