<svg width="169" height="31" viewBox="0 0 169 31" fill="none" xmlns="http://www.w3.org/2000/svg">
<g id="Layer 2 1" clip-path="url(#clip0_868_766)">
<g id="Layer 1">
<path id="Path 13678" d="M0 2.09399H9.423V21.986H21.986V29.315H0V2.09399Z" fill="#E84D74"/>
<path id="Path 13679" d="M28.925 28.613C27.1052 27.7295 25.5652 26.36 24.475 24.656C23.3912 22.937 22.8311 20.9398 22.863 18.908C22.8311 16.8762 23.3912 14.879 24.475 13.16C25.5634 11.4594 27.1044 10.096 28.925 9.22301C30.9217 8.25801 33.1166 7.77409 35.334 7.81001C37.5645 7.7708 39.7732 8.25473 41.783 9.22301C43.6034 10.093 45.1426 11.4573 46.225 13.16C47.2918 14.885 47.8406 16.8801 47.806 18.908C47.8406 20.9359 47.2918 22.931 46.225 24.656C45.1416 26.3617 43.6045 27.7319 41.786 28.613C39.7789 29.5945 37.5679 30.0869 35.334 30.05C33.1142 30.0833 30.918 29.5909 28.925 28.613ZM37.845 21.986C38.5468 21.095 38.897 19.9772 38.829 18.845C38.9061 17.7117 38.5549 16.5907 37.845 15.704C37.5254 15.3579 37.1376 15.0817 36.7061 14.8928C36.2745 14.7039 35.8086 14.6064 35.3375 14.6064C34.8664 14.6064 34.4004 14.7039 33.9689 14.8928C33.5373 15.0817 33.1496 15.3579 32.83 15.704C32.1154 16.5883 31.7636 17.7111 31.846 18.845C31.7729 19.9778 32.1237 21.0973 32.83 21.986C33.1479 22.3349 33.5351 22.6137 33.9669 22.8044C34.3986 22.9952 34.8655 23.0937 35.3375 23.0937C35.8095 23.0937 36.2763 22.9952 36.7081 22.8044C37.1399 22.6137 37.5271 22.3349 37.845 21.986Z" fill="#E84D74"/>
<path id="Path 13680" d="M69.905 9.161C71.5 10.0775 72.8058 11.4232 73.674 13.045C74.6275 14.8497 75.1065 16.8673 75.066 18.908C75.1037 20.9551 74.6249 22.9787 73.674 24.792C72.8093 26.4192 71.5029 27.7693 69.905 28.687C68.3142 29.6031 66.5057 30.0733 64.67 30.048C62.032 30.048 58.587 27.891 58.587 27.891V29.315H50.254V0H58.63V9.653C60.4174 8.42331 62.5427 7.77929 64.712 7.81C66.532 7.79362 68.3238 8.25977 69.905 9.161ZM65.1 21.986C65.8063 21.0973 66.1571 19.9778 66.084 18.845C66.1664 17.7111 65.8146 16.5883 65.1 15.704C64.7804 15.3579 64.3927 15.0817 63.9611 14.8928C63.5296 14.7039 63.0636 14.6064 62.5925 14.6064C62.1214 14.6064 61.6555 14.7039 61.2239 14.8928C60.7924 15.0817 60.4046 15.3579 60.085 15.704C59.3704 16.5883 59.0187 17.7111 59.101 18.845C59.028 19.9778 59.3787 21.0973 60.085 21.986C60.4029 22.3349 60.7901 22.6137 61.2219 22.8044C61.6537 22.9952 62.1205 23.0937 62.5925 23.0937C63.0646 23.0937 63.5314 22.9952 63.9632 22.8044C64.3949 22.6137 64.7821 22.3349 65.1 21.986Z" fill="#E84D74"/>
<path id="Path 13681" d="M80.615 29.45C79.1089 29.159 77.6551 28.6436 76.302 27.921L78.731 22.079C79.8276 22.7281 81.0175 23.2047 82.259 23.492C83.5515 23.8269 84.8808 23.9993 86.216 24.005C86.9241 24.0446 87.6335 23.9558 88.31 23.743C88.4849 23.7131 88.6455 23.6277 88.7681 23.4995C88.8907 23.3713 88.9689 23.207 88.991 23.031C88.991 22.696 88.729 22.466 88.216 22.331C87.3976 22.1517 86.5691 22.0224 85.735 21.944C84.2282 21.7787 82.7346 21.5094 81.265 21.138C80.0317 20.8132 78.9122 20.154 78.03 19.233C77.5401 18.6864 77.1645 18.0473 76.9254 17.3532C76.6864 16.6592 76.5886 15.9244 76.638 15.192C76.6271 13.8456 77.0656 12.5341 77.884 11.465C78.8758 10.2438 80.1825 9.31707 81.663 8.785C83.5782 8.09308 85.6052 7.76282 87.641 7.811C89.2431 7.80724 90.8418 7.95794 92.415 8.261C93.7724 8.51087 95.0878 8.95122 96.322 9.569L93.883 15.411C91.9893 14.3672 89.8582 13.8299 87.696 13.851C85.759 13.851 84.785 14.186 84.785 14.898C84.785 15.2467 85.0467 15.4873 85.57 15.62C86.3832 15.8155 87.2088 15.9555 88.041 16.039C89.5456 16.2021 91.0363 16.4752 92.501 16.856C93.7227 17.2051 94.8311 17.8693 95.715 18.782C96.2032 19.3298 96.5776 19.9691 96.8165 20.6628C97.0555 21.3565 97.1542 22.0908 97.107 22.823C97.11 24.144 96.6675 25.4275 95.851 26.466C94.8747 27.6581 93.5886 28.5577 92.134 29.066C90.1878 29.7649 88.1293 30.0985 86.062 30.05C84.2307 30.0529 82.4047 29.8516 80.618 29.45H80.615Z" fill="#E84D74"/>
<path id="Path 13682" d="M114.515 28.76C112.934 29.5997 111.154 29.9941 109.366 29.901C106.978 30.0582 104.622 29.2767 102.802 27.723C101.273 26.268 100.509 24.08 100.509 21.19V15.704H97.366V9.42299H100.507V3.14099H108.883V9.42299H114.118V15.705H108.883V21.118C108.85 21.6679 109.022 22.2104 109.366 22.641C109.522 22.8189 109.716 22.96 109.933 23.0541C110.15 23.1481 110.385 23.1929 110.622 23.185C111.3 23.1995 111.965 22.9939 112.517 22.599L114.515 28.76Z" fill="#E84D74"/>
<path id="Path 13683" d="M139.58 20.939H124.671C124.963 21.723 125.518 22.3816 126.241 22.803C127.081 23.2606 128.028 23.4848 128.984 23.452C129.791 23.4701 130.595 23.3497 131.361 23.096C132.116 22.7986 132.822 22.3894 133.455 21.882L138.083 26.551C135.989 28.847 132.866 29.995 128.713 29.995C126.359 30.047 124.024 29.5599 121.887 28.571C120.025 27.699 118.449 26.3155 117.343 24.582C116.261 22.8669 115.701 20.8745 115.73 18.847C115.701 16.8218 116.253 14.8307 117.321 13.11C118.383 11.4197 119.89 10.0542 121.676 9.16301C123.569 8.25182 125.64 7.76902 127.741 7.74897C129.842 7.72892 131.922 8.17211 133.832 9.04701C135.589 9.88088 137.071 11.1993 138.104 12.847C139.199 14.6528 139.752 16.7357 139.695 18.847C139.69 18.991 139.653 19.682 139.58 20.939ZM125.697 14.657C125.07 15.1949 124.651 15.936 124.514 16.751H131.414C131.277 15.9383 130.863 15.1982 130.241 14.657C129.585 14.1675 128.788 13.903 127.969 13.903C127.15 13.903 126.353 14.1675 125.697 14.657Z" fill="#E84D74"/>
<path id="Path 13684" d="M157.042 7.98901V15.705C156.414 15.6128 155.781 15.5637 155.147 15.558C152.222 15.558 150.76 17.0447 150.76 20.018V29.318H142.385V8.37601H150.761V10.69C151.521 9.77605 152.486 9.05492 153.578 8.58563C154.67 8.11635 155.857 7.91224 157.043 7.99001L157.042 7.98901Z" fill="#E84D74"/>
<path id="Path 13685" d="M159.87 28.614C159.384 28.1391 159.002 27.5678 158.75 26.9368C158.498 26.3059 158.38 25.6292 158.404 24.95C158.376 24.275 158.492 23.6019 158.745 22.9754C158.998 22.349 159.382 21.7836 159.87 21.317C160.896 20.4203 162.213 19.9262 163.576 19.9262C164.939 19.9262 166.256 20.4203 167.282 21.317C167.77 21.7836 168.154 22.349 168.407 22.9754C168.66 23.6019 168.776 24.275 168.748 24.95C168.772 25.6292 168.654 26.3059 168.402 26.9368C168.15 27.5678 167.768 28.1391 167.282 28.614C166.268 29.5364 164.947 30.0476 163.576 30.0476C162.205 30.0476 160.884 29.5364 159.87 28.614Z" fill="#E84D74"/>
</g>
</g>
<defs>
<clipPath id="clip0_868_766">
<rect width="168.752" height="30.052" fill="white"/>
</clipPath>
</defs>
</svg>
