<svg width="24" height="24" viewBox="0 0 24 24" fill="none" xmlns="http://www.w3.org/2000/svg">
<path d="M12.2182 12.2095C11.5029 12.5195 10.7367 12.2848 9.9749 12.4863C7.67624 13.0953 6.44276 14.7008 5.8847 16.7913C5.50602 18.2174 5.56582 19.7565 5.4108 21.2447C5.33551 21.9755 5.6699 22.3054 6.3719 22.3054C9.17104 22.3054 11.979 22.4361 14.7649 22.2479C16.0006 22.1659 17.2606 22.2478 18.6004 22.0264C18.6004 18.946 18.472 15.952 16.1423 13.6113C15.7492 13.1929 15.2722 12.8623 14.7425 12.641C14.2129 12.4197 13.6424 12.3126 13.0686 12.3269M9.5608 2.21758C7.29758 3.60608 7.14699 6.42515 8.21438 8.47135C9.21534 10.3935 11.7465 11.2794 14.1404 10.2075C16.7823 9.02498 17.254 4.62032 14.3619 2.52097C13.4407 1.84476 12.296 1.54611 11.1619 1.68611" stroke="#EB5078" style="stroke:#EB5078;stroke:color(display-p3 0.9216 0.3137 0.4706);stroke-opacity:1;" stroke-width="2" stroke-linecap="round" stroke-linejoin="round"/>
</svg>
