<svg width="45" height="32" viewBox="0 0 45 32" fill="none" xmlns="http://www.w3.org/2000/svg">
<path d="M1.71009 4.61197C14.9929 3.41897 28.3467 3.22843 41.6581 4.04197C43.9381 4.20297 43.9301 0.654969 41.6581 0.493969C28.3467 -0.319545 14.9929 -0.129005 1.71009 1.06397C-0.552909 1.24897 -0.568909 4.79697 1.71009 4.61197Z" fill="#E84D74"/>
<path d="M1.70904 17.302C15.571 15.946 29.409 17.414 43.287 17.559C43.7472 17.5435 44.1834 17.3499 44.5035 17.0189C44.8235 16.6879 45.0025 16.2454 45.0025 15.785C45.0025 15.3245 44.8235 14.8821 44.5035 14.5511C44.1834 14.2201 43.7472 14.0264 43.287 14.011C29.409 13.867 15.571 12.406 1.70904 13.754C-0.537958 13.979 -0.562958 17.527 1.70904 17.302Z" fill="#E84D74"/>
<path d="M1.71 30.3799C15.564 30.9979 29.426 30.8859 43.288 31.1019C43.7482 31.0865 44.1844 30.8928 44.5044 30.5618C44.8245 30.2308 45.0034 29.7884 45.0034 29.3279C45.0034 28.8675 44.8245 28.425 44.5044 28.094C44.1844 27.763 43.7482 27.5694 43.288 27.5539C29.426 27.3369 15.564 27.4539 1.71 26.8319C-0.57 26.7319 -0.57 30.2749 1.71 30.3799Z" fill="#E84D74"/>
</svg>
