<?xml version="1.0" encoding="UTF-8"?>
<svg id="Layer_1" xmlns="http://www.w3.org/2000/svg" version="1.1" viewBox="0 0 76 81">
  <!-- Generator: Adobe Illustrator 29.1.0, SVG Export Plug-In . SVG Version: 2.1.0 Build 142)  -->
  <defs>
    <style>
      .st0 {
        fill: #eb5079;
      }
    </style>
  </defs>
  <path class="st0" d="M9.06,35.9C4.33,33.03.55,28.44.08,22.73-.95,10.14,8.26.88,20.53.08c12.99-.84,25.85,4.99,33.01,15.86,13.86,21.04-8.28,31.01-26.56,29.45-1.36-.12-4.78-.34-5.61-1.35-.33-.4-.43-1.19-.83-1.2-3.16,1.37-6.21,3.28-9.43,4.5-1.24.47-2.6.7-3.78,1.14-1.3.5-2.22,1.76-3.7.73-1.72-1.19-.53-3.18.21-4.56,1.6-2.97,3.84-5.67,5.22-8.76ZM22.67,40.61c.37.59,9.97.95,11.27.88,6.89-.35,18.99-4.09,19.76-12.31.69-7.46-6.74-16.3-12.74-20.01C29.83,2.3,9.14.59,4.78,16.24c-1.95,7.01.12,11.34,5.49,15.64,1.97,1.58,4.3,1.97,3.02,5.08-.92,2.22-2.83,4.37-3.88,6.56,3.12-1.05,5.93-2.89,8.93-4.22,1.17-.52,2.28-1.3,3.46-.45.98.7.61,1.35.87,1.76Z"/>
  <path class="st0" d="M63.72,62.36c.27-.01.5.07.74.2,2.55,1.42,9.77,6.23,10.26,9.09.25,1.48.18,2.63-1.35,3.15-2.72.92-6.39-.3-9.22-.23-1.48.04-2.38,1.15-3.76.38-.3-.16-.73-.74-.96-.7-.14.03-.48.49-.73.64-4.45,2.62-12.65,5-17.79,5.29-8.3.47-25.05.42-27.96-9.54-2.28-7.8.49-16.35,7.36-20.74,10.43-6.67,35.9-6.11,42.27,6.23.92,1.77,1.93,4.3,1.16,6.22ZM68.98,70.85c-.6-.71-1.4-1.29-2.15-1.83-1.07-.78-4.71-2.79-5.22-3.6-.86-1.36.16-2.06.07-2.44-.05-.21-.57-.27-.76-.43-1.14-.94-1.33-3.39-2.2-4.92-2.97-5.21-11.86-7.52-17.47-7.81-11.54-.6-25.86,2.16-24.88,16.73.41,6.08,3.97,7.59,9.37,8.79,8.42,1.86,18.3,1.09,26.32-1.96,1.26-.48,3.96-1.95,5-2.12,1.69-.28,2.13,1.03,2.48.97.13-.02.7-.69,1.01-.87,2.39-1.43,5.83-.53,8.44-.48Z"/>
  <path class="st0" d="M31.59,15.4c-.22-.25-.86-.52-1.22-.57-.88-.11-4.55,0-5.14.56-.29.28-.32.88-1,1.29-1.96,1.17-3.75-1.02-2.86-3.03,1.26-2.86,6.67-3.12,9.33-2.88,3.62.32,6.48,4.1,4.92,7.63-1.28,2.9-6.71,3.86-6.87,6.38-.04.6.28,1.06.12,1.81-.4,1.97-3.32,2.09-3.98-.18-.98-3.32,1.2-5.96,3.8-7.64,1.08-.69,4.35-1.72,2.88-3.37Z"/>
  <path class="st0" d="M28.53,35.15c-.98.98-3.14.67-3.47-.74-.51-2.19,2.66-5.92,4.55-3.19.82,1.19-.18,3.03-1.08,3.93Z"/>
  <path class="st0" d="M39.9,62.42c1.48,1.47.04,3.92-1.9,3.86-3.1-.09-2.94-5.71.89-4.47.19.06.86.46,1.01.61Z"/>
  <path class="st0" d="M44.99,62.42c1.48,1.47.04,3.92-1.9,3.86-3.1-.09-2.94-5.71.89-4.47.19.06.86.46,1.01.61Z"/>
  <path class="st0" d="M32.06,61.6c2.81-.05,3.26,4.27.67,4.65-3.11.46-3.66-4.6-.67-4.65Z"/>
</svg>