<svg width="32" height="32" viewBox="0 0 32 32" fill="none" xmlns="http://www.w3.org/2000/svg">
<g id="Icon">
<path id="Vector" d="M19.0059 28.5457C20.0595 26.2822 21.6108 21.5688 19.387 20.823C19.098 20.7261 18.7444 20.6075 18.3421 20.4726M17.8172 29.4555C17.4996 29.349 15.0411 30.269 14.2487 30.8755C12.1308 30.1653 7.18039 28.505 4.3213 27.5462C1.46221 26.5873 1.71516 25.2184 2.19903 24.6537C2.76878 22.9549 4.01346 19.2435 4.4342 17.989C4.96012 16.4208 6.28289 16.4283 7.07708 16.6946C7.46598 16.825 9.75926 17.5941 12.325 18.4546M13.319 21.7925L10.5394 20.8603M13.7188 23.235C13.5799 23.649 13.6402 23.4695 13.4412 24.0626C13.2005 24.7805 13.4406 24.0644 13.2364 24.6733M8.95099 20.3276L7.36261 19.7949C6.96552 19.6617 6.11873 19.5522 5.90836 20.1795C5.83055 20.4115 5.87875 20.2678 5.63079 21.0071C5.3766 21.7651 5.56887 21.1917 5.29451 22.0098M8.95099 20.3276L10.5394 20.8603M8.95099 20.3276C8.76037 21.0554 8.72803 21.3344 8.41748 22.3778C8.36939 22.7273 7.73273 24.6314 7.3294 25.1628M7.3294 25.1628C6.56974 24.9081 5.96731 24.706 5.74102 24.6301C5.10566 24.417 4.8574 23.7523 4.81269 23.4465C4.94464 23.0531 5.11299 22.5511 5.29451 22.0098M7.3294 25.1628C7.81384 25.3253 8.36222 25.5092 8.91778 25.6955M10.5394 20.8603C10.3488 21.5881 10.3164 21.8671 10.0059 22.9105C9.79182 23.6297 10.0603 22.8793 9.8376 23.5335M8.91778 25.6955C9.93702 26.0373 10.9804 26.3873 11.6975 26.6277C11.7413 26.4971 12.6757 26.3452 12.8861 25.718C12.9491 25.5299 13.0768 25.1493 13.2364 24.6733M8.91778 25.6955C9.16264 25.3729 9.4935 24.5443 9.8376 23.5335M9.8376 23.5335C10.4255 23.3433 11.9283 23.3049 13.2364 24.6733M5.29451 22.0098C5.70952 21.907 6.84648 21.9495 8.07418 22.9421M12.799 6.73639C16.3604 3.71345 20.1518 2.01549 20.3504 1.62186C20.6099 1.10743 27.3102 5.19538 30.9105 7.71516M12.799 6.73639C12.2328 7.21693 11.6725 7.691 11.1333 8.14598M12.799 6.73639C12.5211 10.6481 12.325 14.5348 12.325 18.4546M28.5283 8.14598L28.5283 18.8988M16.5804 14.0328C17.2748 12.4771 18.8607 11.3899 20.7059 11.3899C22.5512 11.3899 24.1371 12.4771 24.8315 14.0328M14.6614 11.964C15.9447 10.0277 18.1725 8.74691 20.7059 8.74691C23.2394 8.74691 25.4672 10.0277 26.7505 11.964M18.906 15.7948C18.906 14.8217 19.7119 14.0328 20.706 14.0328C21.7001 14.0328 22.5059 14.8217 22.5059 15.7948M26.8393 20.6608C25.6315 20.1795 21.6002 20.3995 18.3421 20.4726M12.325 18.4546C14.4539 19.1686 16.7704 19.9455 18.3421 20.4726" stroke="#EB5078" style="stroke:#EB5078;stroke:color(display-p3 0.9216 0.3137 0.4706);stroke-opacity:1;" stroke-width="2" stroke-linecap="round" stroke-linejoin="round"/>
</g>
</svg>
