<svg width="32" height="32" viewBox="0 0 32 32" fill="none" xmlns="http://www.w3.org/2000/svg">
<g id="Icon">
<path id="Vector" d="M27.5955 16.0997C27.3323 12.8239 26.0484 6.41968 23.018 7.00949C19.23 7.74675 7.32466 10.0639 6.24236 10.2745C5.16006 10.4852 3.64059 11.3354 4.05653 13.4725C4.38928 15.1821 5.37366 20.2398 5.82425 22.555C5.63679 23.5157 6.23594 25.2474 10.1322 24.4891C14.0285 23.7307 20.7748 22.4177 23.661 21.856C24.1745 20.647 26.3922 17.9974 26.8251 17.9131M16.6994 12.0592L12.9113 12.7965M18.0936 13.4514C18.2035 14.0156 18.1558 13.7709 18.3132 14.5792C18.5036 15.5575 18.3136 14.5817 18.4751 15.4115M10.7467 13.2178L8.58214 13.639C8.04099 13.7444 7.00028 14.1687 7.16666 15.0236C7.2282 15.3398 7.19008 15.1439 7.38618 16.1514C7.58721 17.1844 7.43515 16.4031 7.65214 17.5179M10.7467 13.2178L12.9113 12.7965M10.7467 13.2178C11.001 14.1749 11.1451 14.5153 11.467 15.9117C11.6388 16.3431 12.146 18.9367 12.0292 19.807M12.0292 19.807C10.994 20.0085 10.173 20.1683 9.86461 20.2283C8.99877 20.3969 8.2829 19.7968 8.03319 19.4758C7.92884 18.9396 7.79569 18.2555 7.65214 17.5179M12.0292 19.807C12.6894 19.6786 13.4367 19.5331 14.1938 19.3858M12.9113 12.7965C13.1656 13.7536 13.3097 14.094 13.6316 15.4904C13.8534 16.4529 13.6736 15.4193 13.8433 16.3129M14.1938 19.3858C15.5828 19.1154 17.0047 18.8387 17.9819 18.6485C17.9472 18.4704 18.9186 17.6899 18.7522 16.835C18.7023 16.5788 18.6014 16.0602 18.4751 15.4115M14.1938 19.3858C14.2647 18.8574 14.1056 17.6938 13.8433 16.3129M13.8433 16.3129C14.393 15.7135 16.0889 14.6939 18.4751 15.4115M7.65214 17.5179C8.06059 17.1308 9.39004 16.4413 11.4402 16.7807" stroke="#EB5078" style="stroke:#EB5078;stroke:color(display-p3 0.9216 0.3137 0.4706);stroke-opacity:1;" stroke-width="2" stroke-linecap="round" stroke-linejoin="round"/>
</g>
</svg>
