<svg width="25" height="31" viewBox="0 0 25 31" fill="none" xmlns="http://www.w3.org/2000/svg">
<path d="M7.50002 4.5C7.66669 3.5 7.90002 1.4 7.50002 1M11 6C11.6667 5.33333 13.1 3.9 13.5 3.5M12 10C12.5 10 13.8 10 15 10M4.00002 7.99998C1.50002 9.5 -2.19998 16.2 7.00002 25C14.5 32.1739 21.8334 30.3333 23.5 27.5C22.3334 25.6666 19.7 22 18.5 22C17.3 22 16 24 15.5 25C14.6667 25.1666 12.3 24.8 9.50002 22C6.00002 18.5 6.00002 16 6.50002 15.5C7.00002 15 9.97436 14.423 9.50002 13C9.00002 11.5 5.57441 7.05533 4.00002 7.99998Z" stroke="#EB5078" style="stroke:#EB5078;stroke:color(display-p3 0.9216 0.3137 0.4706);stroke-opacity:1;" stroke-width="2" stroke-linecap="round" stroke-linejoin="round"/>
</svg>
