<svg width="24" height="24" viewBox="0 0 24 24" fill="none" xmlns="http://www.w3.org/2000/svg">
<mask id="mask0_1727_10553" style="mask-type:alpha" maskUnits="userSpaceOnUse" x="4" y="1" width="16" height="20">
<path d="M10.143 4.38898C10.113 3.717 10.041 3.05101 9.94503 2.38502V2.36102C9.89172 2.1661 9.76316 2.00033 9.58763 1.90019C9.4121 1.80004 9.20398 1.77373 9.00905 1.82704C8.81563 1.88932 8.65385 2.02409 8.55765 2.20307C8.46144 2.38205 8.4383 2.59134 8.49306 2.78702C8.56781 3.31826 8.61587 3.85292 8.63706 4.38898C8.63706 5.36696 10.185 5.36696 10.143 4.38898Z" fill="#EB5078"/>
<path d="M11.931 5.93095C12.4716 5.53921 12.9614 5.0817 13.389 4.56898C13.5283 4.42374 13.6061 4.23026 13.6061 4.02899C13.6061 3.82772 13.5283 3.63424 13.389 3.489C13.2462 3.34721 13.0532 3.26763 12.852 3.26763C12.6508 3.26763 12.4577 3.34721 12.315 3.489C11.9801 3.91204 11.593 4.29103 11.163 4.61698C10.9923 4.7228 10.8687 4.88993 10.8173 5.08407C10.766 5.2782 10.7909 5.48462 10.887 5.66096C10.9907 5.83409 11.1583 5.95947 11.3536 6.00999C11.549 6.06052 11.7564 6.03212 11.931 5.93095Z" fill="#EB5078"/>
<path d="M13.5269 8.4929H12.183C11.9809 8.4929 11.7871 8.41262 11.6442 8.26972C11.5013 8.12682 11.421 7.93301 11.421 7.73092C11.421 7.52882 11.5013 7.33501 11.6442 7.19211C11.7871 7.04921 11.9809 6.96893 12.183 6.96893H13.5269C13.729 6.96893 13.9228 7.04921 14.0657 7.19211C14.2086 7.33501 14.2889 7.52882 14.2889 7.73092C14.2889 7.93301 14.2086 8.12682 14.0657 8.26972C13.9228 8.41262 13.729 8.4929 13.5269 8.4929Z" fill="#EB5078"/>
<path fill-rule="evenodd" clip-rule="evenodd" d="M5.00733 8.77943C5.20355 7.99455 5.55315 7.29995 5.92939 6.80117C6.11647 6.55316 6.32454 6.33439 6.5421 6.17812C6.73147 6.0421 7.03781 5.87477 7.3885 5.93154C7.61574 5.96235 7.83356 6.05715 8.0187 6.15885C8.21623 6.26734 8.41872 6.40741 8.6162 6.56159C9.01145 6.87017 9.42405 7.26472 9.7901 7.6601C10.1556 8.05492 10.4905 8.46766 10.7246 8.81866C10.8398 8.99136 10.9443 9.16952 11.0129 9.33522C11.0468 9.41714 11.0818 9.51925 11.0972 9.63058C11.1107 9.72786 11.1198 9.90564 11.025 10.0873C10.8058 10.5291 10.4778 10.9079 10.0716 11.1878C9.75996 11.4027 9.4103 11.5538 9.04269 11.6341C9.05654 11.7021 9.07986 11.7889 9.11814 11.8957C9.29972 12.4022 9.75698 13.1896 10.6749 14.1887C11.4915 15.0767 12.349 15.6983 13.0076 16.01C13.3365 16.1656 13.5728 16.2234 13.7082 16.229C13.9782 15.6355 14.3053 15.184 14.6496 14.8727C14.9975 14.5583 15.4301 14.3306 15.8686 14.3624L15.87 14.3625C16.1175 14.381 16.3449 14.489 16.52 14.5931C16.7065 14.7039 16.8959 14.8483 17.0783 15.0051C17.444 15.3193 17.8277 15.7232 18.1691 16.1212C18.5113 16.5202 18.8244 16.929 19.047 17.2606C19.1567 17.4241 19.2541 17.5832 19.3217 17.7205C19.3544 17.7867 19.3912 17.87 19.4151 17.9586C19.427 18.0028 19.4413 18.0685 19.443 18.146C19.4446 18.2179 19.4366 18.3533 19.3539 18.4935C19.349 18.502 19.3438 18.5103 19.3385 18.5184C18.9738 19.0729 18.4843 19.5343 17.9092 19.8655C17.3351 20.1962 16.6916 20.388 16.0301 20.4256C13.9473 20.5647 11.3056 19.7714 8.21827 16.7582C6.45645 15.0364 5.51837 13.5378 5.09271 12.2015C4.6632 10.853 4.77242 9.72234 5.00733 8.77943ZM7.24215 7.15274C7.25344 7.14463 7.26329 7.138 7.27175 7.13261C7.30714 7.14464 7.36293 7.16773 7.44101 7.21061C7.56467 7.27853 7.71224 7.37822 7.87775 7.50744C8.20849 7.76566 8.57362 8.11247 8.90955 8.47533C9.24602 8.83875 9.53734 9.20112 9.72626 9.48442C9.78702 9.57553 9.83178 9.65046 9.86292 9.70877C9.74047 9.90206 9.57999 10.0693 9.39056 10.1998C9.15049 10.3653 8.87197 10.4664 8.58165 10.4935C8.56341 10.4952 8.54526 10.4977 8.52725 10.5011C8.04447 10.5912 7.86846 11.0154 7.83352 11.3127C7.79827 11.6127 7.8643 11.954 7.98855 12.3006C8.24195 13.0075 8.80762 13.93 9.7915 15.0008C10.6909 15.9788 11.6695 16.7043 12.4944 17.0946C12.9 17.2866 13.3143 17.4195 13.6868 17.4288C14.0637 17.4383 14.5488 17.3095 14.7625 16.8117C14.9876 16.2892 15.2419 15.9549 15.4543 15.7629C15.6381 15.5968 15.7531 15.5673 15.7792 15.5612C15.7949 15.5667 15.8362 15.5826 15.907 15.6247C16.0128 15.6875 16.1442 15.7845 16.2963 15.9152C16.5996 16.1758 16.9396 16.5309 17.2582 16.9024C17.576 17.2729 17.8591 17.6441 18.0506 17.9293C18.0935 17.9933 18.13 18.0502 18.1602 18.0997C17.9246 18.3914 17.6367 18.6377 17.3103 18.8257C16.8977 19.0634 16.4351 19.201 15.9596 19.2277L15.9529 19.2281C14.2923 19.3398 11.9673 18.7404 9.05641 15.8994C7.38649 14.2674 6.5844 12.9308 6.23609 11.8373C5.89169 10.756 5.97448 9.86141 6.17148 9.07047C6.32927 8.43957 6.60971 7.89191 6.88738 7.5238C7.02729 7.33832 7.15222 7.21734 7.24215 7.15274ZM7.31175 7.11115C7.31178 7.11098 7.30973 7.11161 7.30551 7.11354C7.3096 7.11228 7.31171 7.11132 7.31175 7.11115Z" fill="#EB5078"/>
</mask>
<g mask="url(#mask0_1727_10553)">
<rect width="24" height="24" fill="#EB5078"/>
</g>
</svg>
