<svg width="24" height="24" viewBox="0 0 24 24" fill="none" xmlns="http://www.w3.org/2000/svg">
<path d="M18.8229 19.4648C15.9189 21.8228 11.7909 22.7948 8.2989 21.4508C2.0709 19.0868 -0.149104 11.0468 3.7089 5.85083C4.54564 4.72322 5.60978 3.78383 6.83247 3.09342C8.05516 2.403 9.40917 1.97696 10.8069 1.84283C16.4769 1.29083 22.2549 6.12683 22.4049 11.9228C22.4123 12.4733 22.3721 13.0233 22.2849 13.5668C21.9767 15.3688 21.1416 17.0391 19.8849 18.3668M12.8999 2.9998L14.1 4.1998L13.2 5.0998H12C11.76 5.0998 10.9 5.2998 10.5 5.3998C10.7 5.7998 11.1 6.6598 11.1 6.8998C11.1 7.1398 12.1 7.7998 12.6 8.0998C12.6 8.1998 12.54 8.3998 12.3 8.3998H10.2L10.5 9.8998C10.9 9.9998 11.76 10.1998 12 10.1998H14.1V9.2998L15 8.6998L16.5 8.0998L17.4 8.6998C17.6 8.7998 18 9.0598 18 9.2998C18 9.5398 18.6 10.1998 18.9 10.4998C19.504 10.5998 20.712 10.6798 20.712 10.1998C20.712 9.5998 20.4841 8.6998 20.1 8.6998M6.30002 6.5998C6.20002 6.8998 5.94005 7.6198 5.70005 8.0998C5.40005 8.6998 4.50005 9.2998 4.80005 9.5998C5.04005 9.83981 5.90005 9.6998 6.30005 9.5998C6.50004 9.49981 7.50002 9.53981 7.50002 9.2998C7.50002 8.9998 8.10002 5.6998 7.80002 5.3998M9.23763 11.4745C9.04934 11.3452 8.47426 11.2667 7.68023 11.9867C6.6877 12.8868 6.98626 12.9161 6.35685 13.1868C5.72743 13.4576 6.026 13.4869 5.66288 14.1162C5.60015 14.7562 5.58121 16.1796 6.00728 16.7532C6.53987 17.4703 7.73414 17.5874 8.00044 17.946C8.26673 18.3045 9.39646 19.0801 9.66275 19.4387C9.92904 19.7972 10.4616 20.5143 10.7602 20.5436C10.9991 20.567 10.8167 20.9924 10.6956 21.2022L10.6634 21.5314L14.2462 21.8826L17.3933 20.5289L17.412 17.2625L17.4443 16.9332C17.4658 16.7136 17.5815 16.1487 17.8719 15.6453C18.2351 15.016 17.3716 14.5989 17.3394 14.9282C17.3071 15.2575 16.7422 14.8697 16.1128 15.1404C15.4834 15.4112 15.2494 14.7233 15.0154 14.0355C14.7813 13.3477 14.7491 13.677 14.4828 13.3184C14.2165 12.9599 13.353 12.5428 12.4896 12.1257C11.6262 11.7086 11.8602 12.3965 10.9645 12.3086C10.2479 12.2384 9.51468 11.7233 9.23763 11.4745Z" stroke="white" stroke-width="2" stroke-linecap="round" stroke-linejoin="round"/>
</svg>
