<svg width="104" height="104" viewBox="0 0 104 104" fill="none" xmlns="http://www.w3.org/2000/svg">
<path d="M63.2784 33.8H85.6571C90.6302 33.8 98.8002 36.2866 98.8002 46.9431C98.8002 56.534 91.9622 67.6346 80.6841 67.6346C69.4059 67.6346 55.9964 58.3989 55.9964 46.9431C55.9964 44.3385 56.2718 42.2389 56.7204 40.5492M63.2784 33.8H39.2123M63.2784 33.8C61.7689 33.8 58.2449 34.8073 56.7204 40.5492M39.2123 33.8H15.1463C8.57477 33.8 5.2002 38.1337 5.2002 46.9431C5.2002 57.9549 8.48596 67.6346 22.0731 67.6346C35.6602 67.6346 46.0503 55.4684 46.0503 46.9431C46.0503 44.4799 45.8427 42.3429 45.4425 40.5492M39.2123 33.8C42.3065 33.8 44.4577 36.1349 45.4425 40.5492M45.4425 40.5492C45.4425 40.5492 48.9247 39.4728 51.1957 39.4728C53.4667 39.4728 56.7204 40.5492 56.7204 40.5492M92.2287 48.7192C91.0446 52.449 87.4155 59.9086 82.3714 59.9086M37.8184 47.1719C36.6344 50.9017 32.9352 58.5173 27.8911 58.5173" stroke="white" style="stroke:white;stroke-opacity:1;" stroke-width="4" stroke-linecap="round" stroke-linejoin="round"/>
</svg>
