<svg width="160" height="160" viewBox="0 0 160 160" fill="none" xmlns="http://www.w3.org/2000/svg">
<path d="M50.9776 42.0089C80.7814 42.0089 125.612 89.9152 122.054 105.588M50.9776 42.0089C46.725 94.9904 0.734877 151.205 24.4107 148.668M50.9776 42.0089C54.5595 57.7723 56.576 63.1363 68.9393 76.2913M122.054 105.588C86.6135 112.584 60.2871 130.618 40.9077 141.258M122.054 105.588C103.62 103.449 96.2949 97.8558 85.0108 89.9152M30.6765 68.3894C36.6313 61.1359 39.7732 56.6746 36.6313 53.2467C32.7038 48.9618 17.2227 51.9714 17.2227 50.5428C17.2227 49.1141 34.8107 39.0123 29.341 33.2119C21.7577 25.1701 10.5471 42.7162 12.4023 31.4295C14.2576 20.1426 8.9403 11.247 9.8297 11.2495M57.0484 20.3544C83.1796 24.4464 72.49 59.6721 68.9393 76.2913M150.27 73.3937C130.858 71.8951 99.7765 75.2082 85.0108 89.9152M107.938 68.3894C103.295 55.9479 99.0518 34.2119 126.34 53.9278C153.628 73.6437 143.186 40.8315 134.555 21.9609M68.9393 76.2913C74.035 81.7133 78.4408 85.292 85.0108 89.9152M20.617 91.6562L13.9934 78.8683L26.8829 84.28L20.617 91.6562ZM114.553 26.9648L120.268 21.9609L124.554 28.7472L118.661 33.2119L114.553 26.9648ZM78.9107 20.1979L84.2682 15.194L89.3407 21.193L84.2682 26.4449L78.9107 20.1979ZM83.4217 42.4897L88.4399 37.4714L93.4695 40.8549L91.7777 46.776L83.4217 42.4897ZM36.6313 38.9639L42.2929 33.9456L47.5686 40.2507L42.2929 44.7543L36.6313 38.9639ZM129.662 134.955L136.611 131.352L140.085 138.815L133.78 142.675L129.662 134.955ZM126.832 123.374L128.247 116.168L136.611 118.742L134.938 126.333L130.885 124.854L126.832 123.374ZM137.64 106.132L143.688 102.786L147.419 109.477L141.629 112.823L137.64 106.132Z" stroke="#EB5078" style="stroke:#EB5078;stroke:color(display-p3 0.9216 0.3137 0.4706);stroke-opacity:1;" stroke-width="6" stroke-linecap="round" stroke-linejoin="round"/>
</svg>
