<svg width="134" height="144" viewBox="0 0 134 144" fill="none" xmlns="http://www.w3.org/2000/svg">
<path d="M64.3335 47.3055C51.3613 49.7222 44.7919 63.9722 46.4169 75.2916C48.2641 88.2083 59.1807 97.6388 71.0002 97.3055C83.5002 96.9444 96.9863 85.1666 97.0002 74.6388C97.0002 58.2638 84.0557 46.6666 71.0002 47.3055M67.667 4C68.8654 11.4925 69.3306 19.0839 69.0559 26.6667M27.0002 77.3334L4.3335 82.0278M128.333 55.9999C123 56.2222 117.75 58.4305 112.333 56.6666M111.667 23.9999C108.792 30.6388 101.208 33.361 98.3334 39.9999M24.3334 27.3334C25.9862 34.2778 32.5556 37.9861 35.6667 44M129.667 92.6665L112.333 88.6666M100.306 118C106.723 122.403 112.278 127.958 118.973 132M48.3335 111.333C40.9724 113.569 36.0974 119.667 29.6668 123.333M72.3334 120L74.3334 140" stroke="#EB5078" style="stroke:#EB5078;stroke:color(display-p3 0.9216 0.3137 0.4706);stroke-opacity:1;" stroke-width="7" stroke-linecap="round" stroke-linejoin="round"/>
</svg>
