<svg width="39" height="50" viewBox="0 0 39 50" fill="none" xmlns="http://www.w3.org/2000/svg">
<path d="M11.8004 7.6C12.0671 6 12.4404 2.64 11.8004 2M17.4004 10C18.4671 8.93333 20.7604 6.64 21.4004 6M19.0004 16.4C19.8004 16.4 21.8804 16.4 23.8004 16.4M6.20043 13.2C2.20043 15.6 -3.71957 26.32 11.0004 40.4C23.0004 51.8782 34.7338 48.9333 37.4004 44.4C35.5338 41.4666 31.3204 35.6 29.4004 35.6C27.4804 35.6 25.4004 38.8 24.6004 40.4C23.2671 40.6666 19.4804 40.08 15.0004 35.6C9.40043 30 9.40043 26 10.2004 25.2C11.0004 24.4 15.7594 23.4768 15.0004 21.2C14.2004 18.8 8.71945 11.6885 6.20043 13.2Z" stroke="#EB5078" stroke-width="3" stroke-linecap="round" stroke-linejoin="round"/>
</svg>
