<svg width="89" height="18" viewBox="0 0 89 18" fill="none" xmlns="http://www.w3.org/2000/svg">
<path fill-rule="evenodd" clip-rule="evenodd" d="M26.5946 14.2352L28.9331 6.62663C29.0062 6.40459 29.0646 6.3306 29.3715 6.27138L30 6.16776V5.25H26.7262L26.5362 6.16776L27.6616 6.30097L25.7469 12.6069L24.0662 5.50164H22.2539L20.2662 12.6365L18.3223 6.31579L19.4331 6.18257V5.26479H15.9546L15.75 6.18257L16.4954 6.3454C16.7 6.38981 16.7877 6.43421 16.8608 6.64145L19.3016 14.25H21.2016L23.1016 7.29277L24.7677 14.25L26.5946 14.2352Z" fill="#9D9D9C" style="fill:#9D9D9C;fill:color(display-p3 0.6157 0.6157 0.6118);fill-opacity:1;"/>
<path fill-rule="evenodd" clip-rule="evenodd" d="M34.5078 12.9254C32.6922 12.9254 31.753 11.7547 31.753 9.33649C31.753 6.93365 32.8017 5.87085 34.6017 5.87085C36.3861 5.87085 37.2783 6.93366 37.2783 9.3211C37.2626 11.8164 36.2922 12.9254 34.5078 12.9254ZM34.4452 14.25C37.5913 14.25 39 12.263 39 9.21326C39 6.48696 37.7791 4.5 34.6331 4.5C31.487 4.5 30 6.45617 30 9.3211C30 12.2168 31.2365 14.25 34.4452 14.25Z" fill="#9D9D9C" style="fill:#9D9D9C;fill:color(display-p3 0.6157 0.6157 0.6118);fill-opacity:1;"/>
<path fill-rule="evenodd" clip-rule="evenodd" d="M44.0299 14.2185V13.2435L42.5265 13.102C42.2827 13.0863 42.2692 13.0234 42.2692 12.7246V7.11047C42.6484 6.7016 43.4882 5.93103 44.2195 5.93103C44.3685 5.93103 44.3956 5.9625 44.4227 6.11976L44.6258 7.425L45.75 7.4879V4.67298C45.4656 4.5629 44.978 4.5 44.6123 4.5C43.5017 4.5 42.6891 5.30201 42.1608 5.99395L42.1202 5.97821L41.9712 4.70442H39.899L39.75 5.69515L40.6574 6.04112C40.82 6.10403 40.8606 6.22983 40.8606 6.43427V12.7718C40.8606 13.0548 40.8335 13.102 40.6033 13.1492L39.8042 13.2593V14.25H44.0299V14.2185Z" fill="#9D9D9C" style="fill:#9D9D9C;fill:color(display-p3 0.6157 0.6157 0.6118);fill-opacity:1;"/>
<path fill-rule="evenodd" clip-rule="evenodd" d="M50.25 14.2349V13.2997L49.3255 13.1791C49.0911 13.1489 49.0781 13.1036 49.0781 12.817V0.75H46.7214L46.5781 1.70029L47.5026 2.04721C47.6589 2.10754 47.6979 2.22821 47.6979 2.4243V12.8321C47.6979 13.1037 47.6719 13.1791 47.4505 13.1941L46.5 13.2997V14.25H50.25V14.2349Z" fill="#9D9D9C" style="fill:#9D9D9C;fill:color(display-p3 0.6157 0.6157 0.6118);fill-opacity:1;"/>
<path fill-rule="evenodd" clip-rule="evenodd" d="M57.275 11.4548C56.509 12.228 55.6694 12.9119 54.6383 12.9119C53.4157 12.9119 52.6056 12.1239 52.6056 9.6707C52.6056 7.57434 53.2537 6.13217 54.8887 6.13217C55.8167 6.13217 56.7594 6.63768 57.275 7.08371V11.4548ZM60 14.0567V13.1201L59.1162 13.0011C58.8511 12.9714 58.8363 12.9268 58.8363 12.6443V0.75H56.1997L56.0377 1.68668L57.0835 2.02864C57.2455 2.07324 57.3044 2.20706 57.3044 2.38547V5.68613C56.6269 5.19549 55.6841 4.83866 54.6383 4.83866C52.5466 4.83866 51 6.26598 51 9.73019C51 12.9565 52.2962 14.25 54.2848 14.25C55.6399 14.25 56.5532 13.6404 57.3486 12.8673L57.4223 12.8822L57.5548 14.0567H60Z" fill="#9D9D9C" style="fill:#9D9D9C;fill:color(display-p3 0.6157 0.6157 0.6118);fill-opacity:1;"/>
<path fill-rule="evenodd" clip-rule="evenodd" d="M63.491 7.03223C63.9894 6.61278 65.0301 5.89817 66.1441 5.89817C67.2142 5.89817 68.1376 6.69045 68.1376 9.19161C68.1376 11.5063 67.5073 12.9666 65.8656 12.9666C64.9422 12.9666 64.0774 12.3763 63.491 11.7704V7.03223ZM65.4112 18V17.0368L63.7842 16.897C63.5204 16.8815 63.5057 16.8193 63.5057 16.5242V13.3239C64.3266 14.0852 65.1474 14.3337 66.1441 14.3337C68.8705 14.3337 69.75 11.8015 69.75 9.03624C69.75 5.80495 68.4308 4.5 66.4959 4.5C65.3086 4.5 64.3412 5.01266 63.3884 5.74281L63.3445 5.72729L63.1832 4.68644H60.9112L60.75 5.66513L61.7321 6.00691C61.908 6.05351 61.952 6.19333 61.952 6.39528V16.5397C61.952 16.8193 61.8933 16.8659 61.6588 16.9125L60.9406 17.0213V18H65.4112Z" fill="#F11E15" style="fill:#F11E15;fill:color(display-p3 0.9451 0.1176 0.0824);fill-opacity:1;"/>
<path fill-rule="evenodd" clip-rule="evenodd" d="M76.0148 11.5853C75.4677 12.109 74.3736 12.987 73.3535 12.987C72.5403 12.987 72.1263 12.5865 72.1263 11.6161C72.1263 10.6765 72.5403 10.2144 74.0484 10.0758L76.0148 9.89099V11.5853ZM78.75 14.0652V13.0948L77.8629 12.9716C77.5968 12.9408 77.582 12.8945 77.582 12.6019V7.76539C77.582 5.23933 76.754 4.5 74.2849 4.5C72.9099 4.5 70.914 4.76186 70.914 7.01067L72.422 7.1801C72.4368 5.80925 73.2056 5.76302 74.2702 5.76302C75.7782 5.76302 76.0296 6.42535 76.0296 7.76539V8.73578L73.6788 8.93603C71.5793 9.12086 70.5 9.968 70.5 11.7855C70.5 12.7097 70.7809 14.25 72.9691 14.25C74.3145 14.25 75.2903 13.6647 76.1183 12.8483L76.1626 12.8637L76.3253 14.0498H78.75V14.0652Z" fill="#F11E15" style="fill:#F11E15;fill:color(display-p3 0.9451 0.1176 0.0824);fill-opacity:1;"/>
<path fill-rule="evenodd" clip-rule="evenodd" d="M84.9678 18V17.0914L83.2893 16.9127L87.4783 6.56076C87.5659 6.36712 87.6972 6.29263 87.9162 6.26284L88.5 6.17347V5.25H85.0846L84.8948 6.17347L86.0625 6.30752L83.6688 12.2506L81.3773 6.30752L82.5157 6.17347V5.25H78.9543L78.75 6.17347L79.4506 6.35223C79.6549 6.39691 79.7279 6.44159 79.8155 6.65012L82.9244 14.1869L81.9173 16.5403C81.8151 16.7935 81.7421 16.8978 81.5378 16.9127L80.2972 17.0765V18H84.9678Z" fill="#F11E15" style="fill:#F11E15;fill:color(display-p3 0.9451 0.1176 0.0824);fill-opacity:1;"/>
<path fill-rule="evenodd" clip-rule="evenodd" d="M8.42282 14.9469C8.96575 14.708 9.5527 14.3944 10.1397 14.0509C9.58205 14.6781 8.98042 14.8424 8.42282 14.9469ZM7.10217 16.0669C7.04348 16.0669 6.58857 16.0669 6.58857 15.9027C6.58857 15.8131 6.73532 15.4994 6.86738 15.4696C7.14619 15.3501 7.74781 15.2008 7.77716 15.2008C7.83585 15.2008 8.3201 15.2605 8.37879 15.2605C8.42282 15.2605 8.775 15.2456 8.98043 15.1858C9.21521 15.1261 9.52336 15.0216 9.80217 14.8424C10.081 14.6781 10.4918 14.3197 10.6826 14.021C10.8 13.8567 10.844 13.6327 10.9761 13.4685C11.1375 13.2445 11.4603 13.0503 11.7244 12.8114C11.9886 12.5426 12.2527 12.2589 12.4875 11.9602C11.9592 14.3346 8.90706 16.0669 7.10217 16.0669ZM8.24673 3.1792C9.20054 3.38827 10.2717 3.79148 11.2109 4.74723C11.5044 5.04591 11.7685 5.46405 11.8859 5.77766C11.9446 5.91206 11.9446 6.12113 12.0326 6.2406C12.1793 6.4646 12.4435 6.65874 12.6342 6.89768C12.8837 7.16649 13.0304 7.45021 13.1625 7.74889C13.2212 7.83849 13.2359 7.97288 13.2946 8.09235C13.3679 8.24169 13.5 8.95852 13.5 9.22732C13.5 9.77987 13.3092 10.4519 13.0744 10.9746C13.0744 10.9895 13.0891 10.9895 13.0891 11.0492V11.5122C12.8837 14.4093 9.43532 16.5 7.27825 16.5C7.01412 16.5 6.28044 16.4552 6.28044 15.9325C6.28044 15.8728 6.32444 15.7085 6.35379 15.5741C5.94292 15.6339 5.13585 15.7832 4.68096 15.7832C4.32879 15.7832 2.71466 15.7682 2.71466 14.8872C2.71466 14.0658 4.16739 14.0061 4.4462 14.0061C5.22391 14.0061 6.04565 14.2301 6.85272 14.6034C6.72065 14.6482 6.48587 14.7229 6.44185 14.7229C6.38315 14.7229 6.30978 14.6632 6.23642 14.6482C5.72283 14.4541 5.12119 14.3496 4.57826 14.3496C4.2701 14.3496 4.21142 14.3346 3.82989 14.4242C3.78587 14.4242 3.14022 14.5885 3.14022 14.8573C3.14022 15.0514 3.65379 15.156 3.77119 15.1709C3.99129 15.2157 4.46087 15.2456 4.49022 15.2456C7.80652 15.2456 12.9424 12.4679 12.9424 9.13773C12.9424 8.52545 12.6636 7.62943 12.106 7.06195C12.062 7.30089 12.0179 7.56968 11.9152 7.83848C11.8565 8.00275 11.7098 8.30142 11.7098 8.34622C11.7098 8.34622 12.6342 9.37666 12.6342 9.60067C12.6342 9.73507 12.4288 10.3175 12.4288 10.3324C12.238 9.82466 11.9739 9.31693 11.4603 8.80919C11.387 8.88385 11.3136 9.0033 11.2402 9.09291C11.1522 9.22731 11.0348 9.36172 10.9174 9.48119C10.6679 9.76493 10.1103 10.2577 10.1103 10.3025C10.1103 10.3025 10.7853 10.9746 11.0054 11.766C11.0495 11.8855 11.0935 12.1095 11.0935 12.1394C11.0935 12.2588 10.7266 12.4978 10.7266 12.5127C10.712 11.8706 10.4478 11.1986 9.75815 10.5564C8.95108 11.1538 8.11466 11.6466 7.32227 12.0348C7.80651 12.453 8.08532 13.0503 8.08532 13.4834C8.08532 13.6925 7.96793 14.1405 7.87989 14.2002C7.7625 14.2749 7.6451 14.3197 7.51304 14.3496C7.65978 14.1554 7.79185 13.7224 7.79185 13.5431C7.79185 13.1997 7.57173 12.677 7.19021 12.3932C7.10217 12.3335 6.97009 12.1991 6.92607 12.1991C6.86737 12.1991 6.41248 12.4082 6.14835 12.4978C5.85487 12.6173 5.53206 12.7069 5.22391 12.7965C4.27011 13.0802 3.37499 13.2445 2.46521 13.2445C2.11303 13.2445 0.572282 13.1997 0.572282 12.3634C0.572282 11.1089 3.4337 10.9895 3.82989 10.9895C4.68098 10.9895 5.50271 11.0791 6.38314 11.4823C6.22173 11.542 5.8989 11.6764 5.85488 11.6764C5.79618 11.6764 4.82771 11.3927 3.96195 11.3927C3.56576 11.3927 3.08151 11.4375 2.71466 11.4972C2.42118 11.557 2.11303 11.6316 1.86357 11.7362C1.77553 11.7511 1.08586 12.0498 1.08586 12.3186C1.08586 12.3634 1.20325 12.4381 1.27662 12.4679C1.64347 12.6621 1.98098 12.6322 2.3625 12.6322C5.88424 12.6322 11.2842 9.82467 11.5924 6.91261V6.44967C11.431 4.55309 8.52554 3.32854 7.10217 3.32854C7.05815 3.32854 6.82335 3.34347 6.67661 3.38827C6.76466 3.43307 6.88207 3.43307 6.97011 3.46294C7.04348 3.47787 7.13151 3.52267 7.23423 3.55254C7.38097 3.61227 7.6451 3.74667 7.80651 3.896C7.93858 4.01547 8.01194 4.17974 8.14401 4.26935C8.23205 4.35895 8.42282 4.34401 8.56956 4.40374C9.0538 4.55308 9.65544 4.7771 10.1543 5.0011C10.3598 5.10564 10.6239 5.22509 10.844 5.35949C10.9174 5.41923 10.9761 5.52378 11.0348 5.62831C11.1228 5.77765 11.2402 6.03151 11.2696 6.22565C10.3011 5.4939 9.33261 5.12057 8.36413 4.79203H8.30542C8.34944 5.29978 8.14401 5.80753 7.77716 6.31527C8.83368 6.59901 9.94891 7.01714 11.0495 7.77876C10.9908 7.91316 10.9174 8.0625 10.8293 8.1969C10.3598 7.85343 9.86086 7.59955 9.3913 7.37555C9.27391 7.31581 7.71848 6.73341 7.46902 6.73341C7.41032 6.73341 7.04346 7.10674 6.83803 7.28595C6.33912 7.70409 5.82553 8.0177 5.32662 8.31637C6.69129 8.51051 8.04129 8.80917 9.40596 9.70519C9.31792 9.79479 9.1125 9.98893 9.05381 9.98893C9.00978 9.98893 8.6576 9.72012 8.45217 9.63052C7.49836 9.16757 5.69347 8.70464 4.59292 8.70464C4.50488 8.70464 3.41901 9.16758 3.15488 9.24225C2.39184 9.46626 1.55543 9.74999 0.777716 9.74999C0.513585 9.74999 0 9.73507 0 9.302C0 8.45078 2.96411 8.2417 3.16955 8.2417H3.81521C3.34564 8.43584 2.78803 8.62997 2.34781 8.74944C1.92227 8.86891 1.46737 8.94358 1.0565 9.06305C0.983132 9.07799 0.909771 9.13772 0.836402 9.18253C0.836402 9.18253 0.821726 9.19745 0.880422 9.19745C0.924443 9.19745 1.52607 9.10785 1.86357 9.03318C3.55107 8.61504 5.38532 7.94303 7.05815 6.37499C7.46902 5.97179 7.7625 5.4939 7.86522 5.06083V4.68749C7.80653 4.26934 7.21955 3.83627 6.83803 3.73173C6.58857 3.65707 6.1337 3.56746 6.075 3.56746C5.98696 3.56746 5.85489 3.6272 5.75217 3.77653C6.3538 3.91094 7.0288 3.77653 7.55706 4.52321C7.55706 4.52321 7.57173 4.53816 7.55706 4.58296C7.41032 4.52323 5.57608 4.09015 5.2826 4.09015C5.16521 4.09015 4.29945 4.71736 4.09401 4.83683C3.5364 5.18031 2.96413 5.49392 2.40652 5.77766L4.3288 5.79258C5.16522 5.85232 6.11902 5.95685 6.97011 6.13605C6.92609 6.15098 6.60326 6.50939 6.52989 6.50939C6.48587 6.50939 5.8989 6.38994 5.60543 6.36007C5.06249 6.2854 4.50487 6.27045 3.94727 6.22565L1.52608 6.2854C1.39401 6.27046 1.12988 6.25552 1.12988 6.01658C1.12988 5.85231 1.33532 5.73285 1.48206 5.67311C1.59945 5.62831 1.71685 5.56857 1.83424 5.52377C3.02283 5.01602 4.25542 4.34401 5.45868 3.56746C5.41466 3.55253 5.3413 3.55254 5.31195 3.55254C5.25326 3.55254 5.10651 3.56746 5.00379 3.61226C5.01846 3.6272 5.04782 3.62721 5.0625 3.62721C4.90108 3.71681 4.62229 3.91095 4.56359 3.91095C4.43152 3.91095 4.25543 3.74668 4.25543 3.62721C4.25543 3.28374 5.01847 3.26879 5.07716 3.26879C5.84021 3.25386 5.89891 3.28372 5.95761 3.28372C6.00163 3.28372 6.30977 3.11945 6.5152 3.07465C6.80868 2.99998 6.95543 3 7.23423 3C7.51304 3.07467 7.89456 3.10453 8.24673 3.1792Z" fill="#F11E15" style="fill:#F11E15;fill:color(display-p3 0.9451 0.1176 0.0824);fill-opacity:1;"/>
</svg>
